# xmcd
#
# Track frame offsets:
#	150
#	13062
#	32297
#	57577
#	76640
#	97720
#	121157
#	130275
#	153205
#	177565
#	193387
#	211387
#	230177
#	248707
#	267580
#	289222
#	308810
#
# Disc length: 4194 seconds
#
# Revision: 1
# Processed by: cddbd v1.5.1PL0 Copyright (c) Steve Scherf et al.
# Submitted via: CDex 1.50Beta5
#
DISCID=ec106011
DTITLE=千住明 - FURUSATO〜故郷
DYEAR=2001
DGENRE=
TTITLE0=千住明/日本映像の20世紀(Ending Theme)
TTITLE1=久石譲/銀河鉄道の夜
TTITLE2=天山/やさしく生きて そして愛して
TTITLE3=ジャー・パンファン/花
TTITLE4=藤原真理/風のとおり道
TTITLE5=高嶋ちさ子/もののけ姫
TTITLE6=村松健/シチリアーノ
TTITLE7=渡辺香津美/CAVATINA
TTITLE8=渡辺香津美/ウォーター・ウェイズ・フロウ・バックワード・アゲイン
TTITLE9=沢知恵/こころ
TTITLE10=幸田聡子/川の流れのように
TTITLE11=ダ・カーポ/さよならとは言わないで
TTITLE12=古澤良治郎/ソング・フォー・マジョリー
TTITLE13=本谷美加子/たんぽぽぽ
TTITLE14=ジャー・パンファン/島唄
TTITLE15=岩田英憲/小さな旅と美術館(オープニング・テーマ)
TTITLE16=大野雄二/オープニング・テーマ〜小さな旅〜光と風の四季〜
EXTD=
EXTT0=
EXTT1=
EXTT2=
EXTT3=
EXTT4=
EXTT5=
EXTT6=
EXTT7=
EXTT8=
EXTT9=
EXTT10=
EXTT11=
EXTT12=
EXTT13=
EXTT14=
EXTT15=
EXTT16=
PLAYORDER=
